HIERARCHY
ROOT Hips
{
  OFFSET 0.000000 0.000000 0.000000
  CHANNELS 6 Xposition Yposition Zposition Zrotation Xrotation Yrotation
  JOINT Spine
  {
    OFFSET 0.000000 10.000000 0.000000
    CHANNELS 3 Zrotation Xrotation Yrotation
    JOINT Chest
    {
      OFFSET 0.000000 15.000000 0.000000
      CHANNELS 3 Zrotation Xrotation Yrotation
      JOINT Neck
      {
        OFFSET 0.000000 15.000000 0.000000
        CHANNELS 3 Zrotation Xrotation Yrotation
        JOINT Head
        {
          OFFSET 0.000000 10.000000 0.000000
          CHANNELS 3 Zrotation Xrotation Yrotation
          End Site
          {
            OFFSET 0.0 0.0 0.0
          }
        }
      }
      JOINT LeftShoulder
      {
        OFFSET 20.000000 15.000000 0.000000
        CHANNELS 3 Zrotation Xrotation Yrotation
        JOINT LeftArm
        {
          OFFSET 15.000000 0.000000 0.000000
          CHANNELS 3 Zrotation Xrotation Yrotation
          JOINT LeftForeArm
          {
            OFFSET 25.000000 0.000000 0.000000
            CHANNELS 3 Zrotation Xrotation Yrotation
            JOINT LeftHand
            {
              OFFSET 20.000000 0.000000 0.000000
              CHANNELS 3 Zrotation Xrotation Yrotation
              End Site
              {
                OFFSET 0.0 0.0 0.0
              }
            }
          }
        }
      }
      JOINT RightShoulder
      {
        OFFSET -20.000000 15.000000 0.000000
        CHANNELS 3 Zrotation Xrotation Yrotation
        JOINT RightArm
        {
          OFFSET -15.000000 0.000000 0.000000
          CHANNELS 3 Zrotation Xrotation Yrotation
          JOINT RightForeArm
          {
            OFFSET -25.000000 0.000000 0.000000
            CHANNELS 3 Zrotation Xrotation Yrotation
            JOINT RightHand
            {
              OFFSET -20.000000 0.000000 0.000000
              CHANNELS 3 Zrotation Xrotation Yrotation
              End Site
              {
                OFFSET 0.0 0.0 0.0
              }
            }
          }
        }
      }
    }
  }
  JOINT LeftUpLeg
  {
    OFFSET 10.000000 -10.000000 0.000000
    CHANNELS 3 Zrotation Xrotation Yrotation
    JOINT LeftLeg
    {
      OFFSET 0.000000 -45.000000 0.000000
      CHANNELS 3 Zrotation Xrotation Yrotation
      JOINT LeftFoot
      {
        OFFSET 0.000000 -45.000000 0.000000
        CHANNELS 3 Zrotation Xrotation Yrotation
        JOINT LeftToeBase
        {
          OFFSET 0.000000 0.000000 10.000000
          CHANNELS 3 Zrotation Xrotation Yrotation
          End Site
          {
            OFFSET 0.0 0.0 0.0
          }
        }
      }
    }
  }
  JOINT RightUpLeg
  {
    OFFSET -10.000000 -10.000000 0.000000
    CHANNELS 3 Zrotation Xrotation Yrotation
    JOINT RightLeg
    {
      OFFSET 0.000000 -45.000000 0.000000
      CHANNELS 3 Zrotation Xrotation Yrotation
      JOINT RightFoot
      {
        OFFSET 0.000000 -45.000000 0.000000
        CHANNELS 3 Zrotation Xrotation Yrotation
        JOINT RightToeBase
        {
          OFFSET 0.000000 0.000000 10.000000
          CHANNELS 3 Zrotation Xrotation Yrotation
          End Site
          {
            OFFSET 0.0 0.0 0.0
          }
        }
      }
    }
  }
}
MOTION
Frames: 16
Frame Time: 0.033333
-3.976004 0.111956 -15.230643 0.000000 0.000000 0.000000 0.000000 0.000000 0.000000 0.000000 0.000000 0.000000 0.000000 0.000000 0.000000 0.000000 0.000000 0.000000 -52.710647 -7.115699 14.306287 -78.780107 20.379725 -24.694962 -90.993674 0.893387 -0.878027 -90.993674 0.893387 -0.878027 117.795657 0.029780 0.017966 93.137511 -14.567855 -13.798886 139.865912 -65.507430 -26.449073 139.865912 -65.507430 -26.449073 19.433237 -18.774590 3.243016 -15.566765 -19.253792 -2.656325 -139.495741 146.003684 -79.285478 -139.495741 146.003684 -79.285478 33.090538 -6.941406 2.064407 37.121037 -7.491391 2.518570 62.894124 140.522906 24.751864 62.894124 140.522906 24.751864
-3.961184 0.105783 -15.164859 0.000000 0.000000 0.000000 0.000000 0.000000 0.000000 0.000000 0.000000 0.000000 0.000000 0.000000 0.000000 0.000000 0.000000 0.000000 -54.200054 -7.351543 14.311030 -80.635410 20.362507 -23.898768 -93.029330 0.645522 -0.612264 -93.029330 0.645522 -0.612264 116.778888 -1.153772 -0.710113 91.047480 -10.470117 -10.281457 135.248244 -63.689698 -28.686128 135.248244 -63.689698 -28.686128 19.706758 -21.425536 3.764019 -15.483140 -21.901291 -3.013449 -134.558165 142.172733 -78.585124 -134.558165 142.172733 -78.585124 32.321883 -9.530893 2.767784 37.165028 -6.928445 2.331846 64.703935 141.338130 25.056603 64.703935 141.338130 25.056603
-3.920594 0.103988 -15.117690 0.000000 0.000000 0.000000 0.000000 0.000000 0.000000 0.000000 0.000000 0.000000 0.000000 0.000000 0.000000 0.000000 0.000000 0.000000 -54.954331 -7.884222 15.096221 -82.980032 20.043577 -22.599455 -96.995632 -0.791117 0.699978 -96.995632 -0.791117 0.699978 116.583494 -2.167113 -1.338966 87.266443 -8.705468 -9.129278 134.420903 -63.358148 -29.070700 134.420903 -63.358148 -29.070700 20.283968 -21.057475 3.808407 -15.331138 -22.454749 -3.060820 -127.537396 136.139007 -78.504260 -127.537396 136.139007 -78.504260 30.773172 -9.284350 2.560177 36.810456 -7.072662 2.356139 67.951958 141.570318 26.435213 67.951958 141.570318 26.435213
-3.873088 0.057481 -15.080633 0.000000 0.000000 0.000000 0.000000 0.000000 0.000000 0.000000 0.000000 0.000000 0.000000 0.000000 0.000000 0.000000 0.000000 0.000000 -58.243492 -8.041200 14.382035 -88.155807 22.860129 -23.587405 -110.299912 0.652283 -0.454196 -110.299912 0.652283 -0.454196 113.048030 -2.255860 -1.491870 86.274364 -8.777417 -9.365018 126.598724 -49.484477 -26.099814 126.598724 -49.484477 -26.099814 20.275990 -22.740973 4.118807 -14.959359 -25.079710 -3.345410 -120.628189 130.188535 -78.324311 -120.628189 130.188535 -78.324311 29.395310 -10.026228 2.636160 38.061813 -7.253974 2.505070 76.439977 144.085544 28.634817 76.439977 144.085544 28.634817
-3.434042 0.049479 -15.052163 0.000000 0.000000 0.000000 0.000000 0.000000 0.000000 0.000000 0.000000 0.000000 0.000000 0.000000 0.000000 0.000000 0.000000 0.000000 -66.318407 -8.403368 12.830884 -94.119770 28.665918 -26.749471 -120.934813 10.051049 -5.704092 -120.934813 10.051049 -5.704092 111.001910 -2.441380 -1.677988 82.143417 -11.865339 -13.599714 117.688404 -46.631492 -29.209060 117.688404 -46.631492 -29.209060 20.009384 -21.396097 3.817587 -14.682171 -25.706119 -3.367492 -106.093322 120.527573 -74.421049 -106.093322 120.527573 -74.421049 28.479026 -8.347684 2.121928 38.522652 -7.694693 2.692367 79.326394 144.959830 29.335518 79.326394 144.959830 29.335518
-1.929161 0.051005 -14.993867 0.000000 0.000000 0.000000 0.000000 0.000000 0.000000 0.000000 0.000000 0.000000 0.000000 0.000000 0.000000 0.000000 0.000000 0.000000 -74.144586 -9.038221 11.944114 -97.607059 29.794754 -26.216934 -122.745899 8.785753 -4.802136 -122.745899 8.785753 -4.802136 108.039844 -2.291986 -1.664113 78.010493 -14.300518 -17.608679 111.879176 -49.875147 -34.900879 111.879176 -49.875147 -34.900879 19.716242 -16.677191 2.918081 -14.747589 -20.915416 -2.736654 -109.071391 129.441613 -67.084650 -109.071391 129.441613 -67.084650 23.599567 -5.379098 1.124521 40.387497 -9.348992 3.445212 84.814771 143.011243 33.976554 84.814771 143.011243 33.976554
0.447546 0.014713 -14.687100 0.000000 0.000000 0.000000 0.000000 0.000000 0.000000 0.000000 0.000000 0.000000 0.000000 0.000000 0.000000 0.000000 0.000000 0.000000 -80.819055 -8.979653 10.539326 -101.355791 31.860814 -26.319493 -127.750339 10.541184 -5.180837 -127.750339 10.541184 -5.180837 103.681725 -1.868306 -1.468105 73.117407 -15.798929 -21.196273 107.254102 -52.471293 -39.900736 107.254102 -52.471293 -39.900736 21.823808 -12.833086 2.484034 -11.417317 -17.155840 -1.727797 -121.169314 141.393836 -63.698273 -121.169314 141.393836 -63.698273 15.793928 -0.050242 0.006969 38.387067 -10.898372 3.803918 81.015517 142.596949 32.259209 81.015517 142.596949 32.259209
4.398438 -0.019261 -13.989019 0.000000 0.000000 0.000000 0.000000 0.000000 0.000000 0.000000 0.000000 0.000000 0.000000 0.000000 0.000000 0.000000 0.000000 0.000000 -85.664813 -5.529762 5.964072 -110.487279 36.266233 -25.605175 -135.019751 11.201226 -4.649711 -135.019751 11.201226 -4.649711 99.300854 0.307186 0.260970 71.649966 -16.651611 -22.919948 106.803294 -58.224032 -44.934253 106.803294 -58.224032 -44.934253 16.186920 -14.472744 2.068880 -18.919235 -16.905940 -2.836873 -132.567971 149.630724 -63.416466 -132.567971 149.630724 -63.416466 1.428470 6.634629 -0.082802 41.824782 -9.763515 3.738471 81.937099 142.011379 33.281897 81.937099 142.011379 33.281897
7.556797 -0.218695 -13.563553 0.000000 0.000000 0.000000 0.000000 0.000000 0.000000 0.000000 0.000000 0.000000 0.000000 0.000000 0.000000 0.000000 0.000000 0.000000 -85.650163 -5.189612 5.598724 -122.570810 38.429176 -21.618312 -127.166970 9.480502 -4.717676 -127.166970 9.480502 -4.717676 94.628876 1.576289 1.453836 72.519222 -21.294769 -28.752103 108.872982 -63.047694 -47.358904 108.872982 -63.047694 -47.358904 13.393522 -13.434046 1.584533 -23.360757 -14.929525 -3.103248 -150.554816 161.074924 -64.773197 -150.554816 161.074924 -64.773197 -4.085631 8.200632 0.293008 38.533011 -12.870996 4.515590 78.962426 141.994265 31.677101 78.962426 141.994265 31.677101
10.097202 -0.573681 -12.451725 0.000000 0.000000 0.000000 0.000000 0.000000 0.000000 0.000000 0.000000 0.000000 0.000000 0.000000 0.000000 0.000000 0.000000 0.000000 -88.697207 -6.916199 7.074876 -130.080871 39.011193 -18.724849 -131.412404 6.018435 -2.718634 -131.412404 6.018435 -2.718634 92.889688 3.138407 2.984056 66.648993 -18.874753 -28.375236 99.811929 -55.318179 -47.618076 99.811929 -55.318179 -47.618076 12.286073 -12.418606 1.341797 -25.810760 -13.840101 -3.185863 -156.644457 165.792750 -62.175681 -156.644457 165.792750 -62.175681 -10.427138 9.464877 0.865584 37.862662 -15.773033 5.440291 86.623004 146.968642 31.234587 86.623004 146.968642 31.234587
11.679219 -0.930157 -10.967409 0.000000 0.000000 0.000000 0.000000 0.000000 0.000000 0.000000 0.000000 0.000000 0.000000 0.000000 0.000000 0.000000 0.000000 0.000000 -90.480661 -7.964243 7.897920 -133.888406 30.710727 -13.332954 -150.884116 -7.643237 1.987673 -150.884116 -7.643237 1.987673 89.640659 2.220410 2.234376 64.141877 -18.045251 -28.440740 95.835583 -54.395462 -49.786047 95.835583 -54.395462 -49.786047 8.749700 -10.106593 0.775197 -27.715703 -9.831573 -2.430998 -170.023849 174.436637 -58.208865 -170.023849 174.436637 -58.208865 -9.206525 10.924755 0.882268 31.000247 -16.048507 4.477730 62.663648 138.773129 25.795010 62.663648 138.773129 25.795010
13.036826 -1.147211 -9.294579 0.000000 0.000000 0.000000 0.000000 0.000000 0.000000 0.000000 0.000000 0.000000 0.000000 0.000000 0.000000 0.000000 0.000000 0.000000 -86.643150 -10.679147 11.319822 -133.363659 8.995674 -3.884029 -147.690606 -30.918377 9.160406 -147.690606 -30.918377 9.160406 86.370712 -0.413547 -0.440608 65.337160 -18.514174 -28.523433 94.601250 -50.925242 -47.440605 94.601250 -50.925242 -47.440605 9.873928 -11.352542 0.983831 -26.065445 -14.617053 -3.400879 -168.671039 173.596905 -58.840904 -168.671039 173.596905 -58.840904 -6.689779 14.489662 0.851386 18.223724 -16.416534 2.650678 27.478392 132.061148 12.407557 27.478392 132.061148 12.407557
14.057995 -1.456227 -7.844263 0.000000 0.000000 0.000000 0.000000 0.000000 0.000000 0.000000 0.000000 0.000000 0.000000 0.000000 0.000000 0.000000 0.000000 0.000000 -85.081318 -11.247872 12.250063 -131.559189 -11.580066 5.223430 -144.762495 -37.269339 12.225143 -144.762495 -37.269339 12.225143 83.207378 -0.143795 -0.161939 67.953056 -17.683224 -25.994664 95.389318 -48.214381 -44.316696 95.389318 -48.214381 -44.316696 8.579801 -14.668674 1.106358 -26.958886 -12.199207 -2.934597 -172.740386 176.434041 -52.274943 -172.740386 176.434041 -52.274943 -6.483010 11.531362 0.655289 10.494151 -16.963175 1.569205 9.754568 131.718453 4.380218 9.754568 131.718453 4.380218
14.916233 -1.545810 -6.203795 0.000000 0.000000 0.000000 0.000000 0.000000 0.000000 0.000000 0.000000 0.000000 0.000000 0.000000 0.000000 0.000000 0.000000 0.000000 -81.523904 -11.704962 13.562289 -127.160582 -22.976789 11.532029 -139.080698 -42.757775 16.618686 -139.080698 -42.757775 16.618686 81.085680 -0.254024 -0.296974 67.173532 -15.263028 -22.814798 94.613646 -45.895883 -42.672390 94.613646 -45.895883 -42.672390 7.344924 -18.931553 1.226242 -27.966730 -15.288532 -3.828471 -160.753654 172.120804 -44.211039 -160.753654 172.120804 -44.211039 -6.484978 9.280456 0.526911 4.245609 -16.368660 0.610890 -4.383520 130.739884 -2.010489 -4.383520 130.739884 -2.010489
14.953195 -1.609333 -5.906819 0.000000 0.000000 0.000000 0.000000 0.000000 0.000000 0.000000 0.000000 0.000000 0.000000 0.000000 0.000000 0.000000 0.000000 0.000000 -79.037501 -12.875564 15.578235 -121.564732 -18.352420 10.324872 -135.253139 -40.011378 17.046578 -135.253139 -40.011378 17.046578 79.574214 -0.651116 -0.781848 67.794723 -13.572580 -20.086838 93.003526 -41.599399 -39.643388 93.003526 -41.599399 -39.643388 8.027620 -17.205426 1.216397 -29.149969 -10.571567 -2.756052 -173.153385 176.977906 -47.592707 -173.153385 176.977906 -47.592707 -5.205360 7.953772 0.362132 0.516396 -15.616804 0.070815 -11.583106 130.324037 -5.375855 -11.583106 130.324037 -5.375855
15.196575 -1.652866 -5.050978 0.000000 0.000000 0.000000 0.000000 0.000000 0.000000 0.000000 0.000000 0.000000 0.000000 0.000000 0.000000 0.000000 0.000000 0.000000 -75.715747 -10.171195 13.062905 -118.416380 -15.382690 9.202572 -136.401178 -32.523160 13.308694 -136.401178 -32.523160 13.308694 78.560705 -0.085384 -0.104391 67.332838 -11.467523 -17.145284 92.798141 -40.333361 -38.555201 92.798141 -40.333361 -38.555201 8.077460 -17.430020 1.240197 -29.580280 -11.939079 -3.162895 -168.957557 175.135198 -47.446598 -168.957557 175.135198 -47.446598 -4.184110 5.833997 0.213297 -0.561900 -14.837955 -0.073168 -13.416464 130.333567 -6.231095 -13.416464 130.333567 -6.231095
